<mxfile host="Electron" agent="Mozilla/5.0 (Windows NT 10.0; Win64; x64) AppleWebKit/537.36 (KHTML, like Gecko) draw.io/26.2.2 Chrome/134.0.6998.178 Electron/35.1.2 Safari/537.36" version="26.2.2">
  <diagram id="C5RBs43oDa-KdzZeNtuy" name="Page-1">
    <mxGraphModel dx="892" dy="620" grid="1" gridSize="10" guides="1" tooltips="1" connect="1" arrows="0" fold="1" page="1" pageScale="1" pageWidth="827" pageHeight="1169" math="0" shadow="0">
      <root>
        <mxCell id="WIyWlLk6GJQsqaUBKTNV-0" />
        <mxCell id="WIyWlLk6GJQsqaUBKTNV-1" parent="WIyWlLk6GJQsqaUBKTNV-0" />
        <mxCell id="zkfFHV4jXpPFQw0GAbJ--17" value="Čsts Api:&#xa;https://www.csts.cz/api/1/&#xa;" style="swimlane;fontStyle=0;align=center;verticalAlign=top;childLayout=stackLayout;horizontal=1;startSize=60;horizontalStack=0;resizeParent=1;resizeLast=0;collapsible=1;marginBottom=0;rounded=0;shadow=0;strokeWidth=1;" parent="WIyWlLk6GJQsqaUBKTNV-1" vertex="1">
          <mxGeometry x="1260" y="175" width="160" height="60" as="geometry">
            <mxRectangle x="550" y="140" width="160" height="26" as="alternateBounds" />
          </mxGeometry>
        </mxCell>
        <mxCell id="L7X3rlgvU_Ros5DvifDq-8" style="edgeStyle=orthogonalEdgeStyle;rounded=0;orthogonalLoop=1;jettySize=auto;html=1;exitX=0.5;exitY=1;exitDx=0;exitDy=0;" parent="WIyWlLk6GJQsqaUBKTNV-1" source="zkfFHV4jXpPFQw0GAbJ--17" target="zkfFHV4jXpPFQw0GAbJ--17" edge="1">
          <mxGeometry relative="1" as="geometry" />
        </mxCell>
        <mxCell id="L7X3rlgvU_Ros5DvifDq-10" value="DSDatabase - Internal" style="rounded=0;whiteSpace=wrap;html=1;" parent="WIyWlLk6GJQsqaUBKTNV-1" vertex="1">
          <mxGeometry x="810" y="230" width="160" height="60" as="geometry" />
        </mxCell>
        <mxCell id="L7X3rlgvU_Ros5DvifDq-12" value="DSAnalyzer" style="rounded=0;whiteSpace=wrap;html=1;" parent="WIyWlLk6GJQsqaUBKTNV-1" vertex="1">
          <mxGeometry x="610" y="290" width="160" height="50" as="geometry" />
        </mxCell>
        <mxCell id="L7X3rlgvU_Ros5DvifDq-14" value="DSScraper" style="rounded=0;whiteSpace=wrap;html=1;" parent="WIyWlLk6GJQsqaUBKTNV-1" vertex="1">
          <mxGeometry x="1010" y="230" width="160" height="60" as="geometry" />
        </mxCell>
        <mxCell id="L7X3rlgvU_Ros5DvifDq-17" value="Čsts stránky:&#xa;https://www.csts.cz/cs/vysledkysoutezi" style="swimlane;fontStyle=0;align=center;verticalAlign=top;childLayout=stackLayout;horizontal=1;startSize=60;horizontalStack=0;resizeParent=1;resizeLast=0;collapsible=1;marginBottom=0;rounded=0;shadow=0;strokeWidth=1;" parent="WIyWlLk6GJQsqaUBKTNV-1" vertex="1">
          <mxGeometry x="1230" y="280" width="220" height="60" as="geometry">
            <mxRectangle x="550" y="140" width="160" height="26" as="alternateBounds" />
          </mxGeometry>
        </mxCell>
        <mxCell id="L7X3rlgvU_Ros5DvifDq-28" value="Front end - web" style="rounded=0;whiteSpace=wrap;html=1;" parent="WIyWlLk6GJQsqaUBKTNV-1" vertex="1">
          <mxGeometry x="20" y="235" width="160" height="60" as="geometry" />
        </mxCell>
        <mxCell id="L7X3rlgvU_Ros5DvifDq-39" value="DSBusinessLogic" style="rounded=0;whiteSpace=wrap;html=1;" parent="WIyWlLk6GJQsqaUBKTNV-1" vertex="1">
          <mxGeometry x="610" y="170" width="160" height="60" as="geometry" />
        </mxCell>
        <mxCell id="WM8BzZ153V-bKACHlE8Z-2" value="" style="endArrow=none;html=1;rounded=0;" parent="WIyWlLk6GJQsqaUBKTNV-1" edge="1">
          <mxGeometry width="50" height="50" relative="1" as="geometry">
            <mxPoint x="200" y="400" as="sourcePoint" />
            <mxPoint x="200" as="targetPoint" />
          </mxGeometry>
        </mxCell>
        <mxCell id="WM8BzZ153V-bKACHlE8Z-3" value="Rest Server" style="rounded=0;whiteSpace=wrap;html=1;" parent="WIyWlLk6GJQsqaUBKTNV-1" vertex="1">
          <mxGeometry x="220" y="235" width="160" height="60" as="geometry" />
        </mxCell>
        <mxCell id="WM8BzZ153V-bKACHlE8Z-4" value="" style="endArrow=none;html=1;rounded=0;" parent="WIyWlLk6GJQsqaUBKTNV-1" edge="1">
          <mxGeometry width="50" height="50" relative="1" as="geometry">
            <mxPoint x="590" y="400" as="sourcePoint" />
            <mxPoint x="590" as="targetPoint" />
          </mxGeometry>
        </mxCell>
        <mxCell id="WM8BzZ153V-bKACHlE8Z-5" value="" style="endArrow=none;html=1;rounded=0;" parent="WIyWlLk6GJQsqaUBKTNV-1" edge="1">
          <mxGeometry width="50" height="50" relative="1" as="geometry">
            <mxPoint x="790" y="400" as="sourcePoint" />
            <mxPoint x="790" as="targetPoint" />
          </mxGeometry>
        </mxCell>
        <mxCell id="WM8BzZ153V-bKACHlE8Z-6" value="Client" style="text;html=1;align=center;verticalAlign=middle;whiteSpace=wrap;rounded=0;" parent="WIyWlLk6GJQsqaUBKTNV-1" vertex="1">
          <mxGeometry x="80" y="50" width="60" height="30" as="geometry" />
        </mxCell>
        <mxCell id="WM8BzZ153V-bKACHlE8Z-7" value="Server" style="text;html=1;align=center;verticalAlign=middle;whiteSpace=wrap;rounded=0;" parent="WIyWlLk6GJQsqaUBKTNV-1" vertex="1">
          <mxGeometry x="270" y="50" width="60" height="30" as="geometry" />
        </mxCell>
        <mxCell id="WM8BzZ153V-bKACHlE8Z-9" value="Model" style="text;html=1;align=center;verticalAlign=middle;whiteSpace=wrap;rounded=0;" parent="WIyWlLk6GJQsqaUBKTNV-1" vertex="1">
          <mxGeometry x="464" y="50" width="60" height="30" as="geometry" />
        </mxCell>
        <mxCell id="WM8BzZ153V-bKACHlE8Z-10" value="" style="endArrow=none;html=1;rounded=0;" parent="WIyWlLk6GJQsqaUBKTNV-1" edge="1">
          <mxGeometry width="50" height="50" relative="1" as="geometry">
            <mxPoint x="990" y="400" as="sourcePoint" />
            <mxPoint x="990" as="targetPoint" />
          </mxGeometry>
        </mxCell>
        <mxCell id="WM8BzZ153V-bKACHlE8Z-11" value="" style="endArrow=none;html=1;rounded=0;" parent="WIyWlLk6GJQsqaUBKTNV-1" edge="1">
          <mxGeometry width="50" height="50" relative="1" as="geometry">
            <mxPoint x="1210" y="400" as="sourcePoint" />
            <mxPoint x="1210" as="targetPoint" />
          </mxGeometry>
        </mxCell>
        <mxCell id="WM8BzZ153V-bKACHlE8Z-12" value="Scraper" style="text;html=1;align=center;verticalAlign=middle;whiteSpace=wrap;rounded=0;" parent="WIyWlLk6GJQsqaUBKTNV-1" vertex="1">
          <mxGeometry x="1070" y="50" width="60" height="30" as="geometry" />
        </mxCell>
        <mxCell id="WM8BzZ153V-bKACHlE8Z-13" value="Data Source" style="text;html=1;align=center;verticalAlign=middle;whiteSpace=wrap;rounded=0;" parent="WIyWlLk6GJQsqaUBKTNV-1" vertex="1">
          <mxGeometry x="1300" y="50" width="80" height="30" as="geometry" />
        </mxCell>
        <mxCell id="_oGKFJQwNx9AuuMZ_kJU-0" value="" style="endArrow=classic;startArrow=classic;html=1;rounded=0;entryX=0;entryY=0.5;entryDx=0;entryDy=0;exitX=1;exitY=0.5;exitDx=0;exitDy=0;" parent="WIyWlLk6GJQsqaUBKTNV-1" source="L7X3rlgvU_Ros5DvifDq-28" target="WM8BzZ153V-bKACHlE8Z-3" edge="1">
          <mxGeometry width="50" height="50" relative="1" as="geometry">
            <mxPoint x="170" y="310" as="sourcePoint" />
            <mxPoint x="220" y="260" as="targetPoint" />
          </mxGeometry>
        </mxCell>
        <mxCell id="_oGKFJQwNx9AuuMZ_kJU-3" value="" style="endArrow=classic;startArrow=classic;html=1;rounded=0;exitX=1;exitY=0.5;exitDx=0;exitDy=0;entryX=0;entryY=0.5;entryDx=0;entryDy=0;" parent="WIyWlLk6GJQsqaUBKTNV-1" source="L7X3rlgvU_Ros5DvifDq-12" target="L7X3rlgvU_Ros5DvifDq-10" edge="1">
          <mxGeometry width="50" height="50" relative="1" as="geometry">
            <mxPoint x="500" y="305" as="sourcePoint" />
            <mxPoint x="800" y="260" as="targetPoint" />
          </mxGeometry>
        </mxCell>
        <mxCell id="_oGKFJQwNx9AuuMZ_kJU-4" value="" style="endArrow=classic;startArrow=classic;html=1;rounded=0;exitX=1;exitY=0.5;exitDx=0;exitDy=0;entryX=0;entryY=0.5;entryDx=0;entryDy=0;" parent="WIyWlLk6GJQsqaUBKTNV-1" source="L7X3rlgvU_Ros5DvifDq-39" target="L7X3rlgvU_Ros5DvifDq-10" edge="1">
          <mxGeometry width="50" height="50" relative="1" as="geometry">
            <mxPoint x="780" y="325" as="sourcePoint" />
            <mxPoint x="820" y="270" as="targetPoint" />
          </mxGeometry>
        </mxCell>
        <mxCell id="_oGKFJQwNx9AuuMZ_kJU-5" value="" style="endArrow=classic;startArrow=classic;html=1;rounded=0;exitX=1;exitY=0.5;exitDx=0;exitDy=0;entryX=0;entryY=0.5;entryDx=0;entryDy=0;" parent="WIyWlLk6GJQsqaUBKTNV-1" source="L7X3rlgvU_Ros5DvifDq-10" target="L7X3rlgvU_Ros5DvifDq-14" edge="1">
          <mxGeometry width="50" height="50" relative="1" as="geometry">
            <mxPoint x="780" y="210" as="sourcePoint" />
            <mxPoint x="820" y="270" as="targetPoint" />
          </mxGeometry>
        </mxCell>
        <mxCell id="_oGKFJQwNx9AuuMZ_kJU-6" value="" style="endArrow=classic;startArrow=classic;html=1;rounded=0;exitX=1;exitY=0.5;exitDx=0;exitDy=0;entryX=0;entryY=0.5;entryDx=0;entryDy=0;" parent="WIyWlLk6GJQsqaUBKTNV-1" source="L7X3rlgvU_Ros5DvifDq-14" target="zkfFHV4jXpPFQw0GAbJ--17" edge="1">
          <mxGeometry width="50" height="50" relative="1" as="geometry">
            <mxPoint x="980" y="270" as="sourcePoint" />
            <mxPoint x="1020" y="270" as="targetPoint" />
          </mxGeometry>
        </mxCell>
        <mxCell id="_oGKFJQwNx9AuuMZ_kJU-7" value="" style="endArrow=classic;startArrow=classic;html=1;rounded=0;exitX=1;exitY=0.5;exitDx=0;exitDy=0;entryX=0;entryY=0.5;entryDx=0;entryDy=0;" parent="WIyWlLk6GJQsqaUBKTNV-1" source="L7X3rlgvU_Ros5DvifDq-14" target="L7X3rlgvU_Ros5DvifDq-17" edge="1">
          <mxGeometry width="50" height="50" relative="1" as="geometry">
            <mxPoint x="1180" y="270" as="sourcePoint" />
            <mxPoint x="1270" y="215" as="targetPoint" />
          </mxGeometry>
        </mxCell>
        <mxCell id="Kz5NYfJryiSnbtyBRzvs-0" value="" style="endArrow=none;html=1;rounded=0;" edge="1" parent="WIyWlLk6GJQsqaUBKTNV-1">
          <mxGeometry width="50" height="50" relative="1" as="geometry">
            <mxPoint x="400" y="400" as="sourcePoint" />
            <mxPoint x="400" as="targetPoint" />
          </mxGeometry>
        </mxCell>
        <mxCell id="Kz5NYfJryiSnbtyBRzvs-1" value="DSDatabase - Production" style="rounded=0;whiteSpace=wrap;html=1;" vertex="1" parent="WIyWlLk6GJQsqaUBKTNV-1">
          <mxGeometry x="414" y="235" width="160" height="60" as="geometry" />
        </mxCell>
        <mxCell id="Kz5NYfJryiSnbtyBRzvs-2" value="" style="endArrow=classic;startArrow=classic;html=1;rounded=0;exitX=0;exitY=0.5;exitDx=0;exitDy=0;entryX=1;entryY=0.5;entryDx=0;entryDy=0;" edge="1" parent="WIyWlLk6GJQsqaUBKTNV-1" source="L7X3rlgvU_Ros5DvifDq-39" target="Kz5NYfJryiSnbtyBRzvs-1">
          <mxGeometry width="50" height="50" relative="1" as="geometry">
            <mxPoint x="780" y="210" as="sourcePoint" />
            <mxPoint x="820" y="270" as="targetPoint" />
          </mxGeometry>
        </mxCell>
        <mxCell id="Kz5NYfJryiSnbtyBRzvs-3" value="" style="endArrow=classic;startArrow=classic;html=1;rounded=0;exitX=0;exitY=0.5;exitDx=0;exitDy=0;entryX=1;entryY=0.5;entryDx=0;entryDy=0;" edge="1" parent="WIyWlLk6GJQsqaUBKTNV-1" source="L7X3rlgvU_Ros5DvifDq-12" target="Kz5NYfJryiSnbtyBRzvs-1">
          <mxGeometry width="50" height="50" relative="1" as="geometry">
            <mxPoint x="620" y="210" as="sourcePoint" />
            <mxPoint x="584" y="245" as="targetPoint" />
          </mxGeometry>
        </mxCell>
        <mxCell id="Kz5NYfJryiSnbtyBRzvs-5" value="" style="endArrow=classic;startArrow=classic;html=1;rounded=0;exitX=1;exitY=0.5;exitDx=0;exitDy=0;entryX=0;entryY=0.5;entryDx=0;entryDy=0;" edge="1" parent="WIyWlLk6GJQsqaUBKTNV-1" source="WM8BzZ153V-bKACHlE8Z-3" target="Kz5NYfJryiSnbtyBRzvs-1">
          <mxGeometry width="50" height="50" relative="1" as="geometry">
            <mxPoint x="620" y="210" as="sourcePoint" />
            <mxPoint x="584" y="275" as="targetPoint" />
          </mxGeometry>
        </mxCell>
      </root>
    </mxGraphModel>
  </diagram>
</mxfile>
